<svg width="1200" height="1200" viewBox="0 0 1200 1200" fill="none" xmlns="http://www.w3.org/2000/svg">
<mask id="mask0_411_1617" style="mask-type:alpha" maskUnits="userSpaceOnUse" x="0" y="0" width="1197" height="1197">
<circle cx="598.033" cy="598.033" r="598.033" fill="#D9D9D9"/>
</mask>
<g mask="url(#mask0_411_1617)">
<path d="M925.883 1091.76C923.138 1093.73 920.001 1095.69 917.256 1097.65C914.118 1099.61 911.373 1101.57 908.236 1103.14C905.491 1104.71 903.138 1106.27 900.393 1107.84C900.001 1108.24 899.609 1108.24 899.216 1108.63C890.197 1114.12 880.785 1119.22 871.373 1123.92C868.628 1125.49 865.491 1127.06 862.746 1128.24C862.746 1128.24 862.354 1128.63 861.962 1128.63C858.824 1130.2 855.687 1131.76 852.55 1133.33C846.275 1136.47 839.609 1139.22 833.334 1141.96C830.197 1143.53 826.667 1144.71 823.53 1145.88C820.393 1147.06 816.864 1148.63 813.726 1149.8C810.589 1150.98 807.06 1152.55 803.922 1153.73C803.922 1153.73 803.922 1153.73 803.53 1153.73C800.393 1154.9 796.864 1156.08 793.726 1157.25C786.667 1159.61 779.216 1161.96 772.158 1164.31C769.805 1165.1 767.06 1165.88 764.707 1166.67C757.256 1169.02 749.805 1170.98 742.354 1172.55C739.609 1173.33 736.864 1173.73 733.726 1174.51C726.667 1176.08 719.216 1177.65 712.158 1179.22C710.589 1179.61 709.413 1179.61 707.844 1180C705.491 1180.39 702.746 1180.78 700.393 1181.18C696.864 1181.57 693.726 1182.35 690.197 1182.74C688.628 1183.14 687.06 1183.14 685.491 1183.53C683.53 1183.92 681.177 1184.31 678.824 1184.31C672.55 1185.1 665.883 1185.88 659.609 1186.67C657.648 1187.06 655.295 1187.06 653.334 1187.45H652.942C650.197 1187.84 647.452 1187.84 644.707 1188.24C641.962 1188.63 639.217 1188.63 636.471 1188.63C634.903 1188.63 632.942 1189.02 631.373 1189.02C628.236 1189.02 625.491 1189.41 622.746 1189.41C618.824 1189.41 615.295 1189.8 611.373 1189.8C607.452 1189.8 603.922 1189.8 600.001 1189.8C597.256 1189.8 594.511 1189.8 591.765 1189.8C426.275 1187.45 277.648 1117.25 171.373 1005.88C171.373 1005.88 171.373 1005.49 170.981 1005.49C159.216 994.902 169.413 938.431 216.864 902.745C276.471 857.647 419.217 829.412 419.217 829.412C419.217 829.412 474.511 820.392 679.609 863.137C799.609 888.235 890.981 924.706 941.962 1023.53C952.55 1043.92 963.138 1075.29 925.883 1091.76Z" fill="#F5EFE8"/>
<path d="M680.785 858.823C756.079 874.118 836.471 890.588 898.432 940.392C919.216 957.255 932.942 981.961 944.315 1005.88C949.805 1017.65 955.295 1029.8 959.609 1042.75C961.962 1051.37 965.491 1061.18 963.53 1071.37C963.138 1074.12 960.785 1077.65 958.824 1079.61C949.805 1088.63 940.001 1094.12 930.197 1101.18C872.55 1141.18 806.275 1169.41 737.648 1184.31C584.707 1217.65 419.216 1191.76 284.707 1111.37C240.001 1084.31 198.824 1051.37 163.53 1012.55C159.609 1007.84 159.609 1000 159.609 994.902C160.001 983.137 163.138 971.765 167.06 961.176C176.471 936.863 188.628 912.549 209.413 895.686C224.315 885.49 240.393 876.863 256.864 869.804C308.628 847.843 363.138 832.549 419.216 826.274C423.922 825.882 424.707 832.549 420.001 833.333C366.275 844.314 312.942 860.784 263.138 883.137C245.099 892.157 225.883 900 211.373 914.118C197.648 929.02 187.844 947.451 180.001 966.274C174.903 977.647 171.373 995.686 172.942 1004.71C197.648 1034.12 226.667 1060 258.04 1082.35C429.805 1202.35 690.589 1210.2 873.334 1110.2C889.805 1101.18 905.883 1090.98 921.177 1080.39C928.628 1075.29 936.471 1070.98 942.354 1065.1C942.746 1064.71 942.354 1065.1 942.354 1065.49C942.354 1065.88 941.962 1066.27 941.962 1066.27C942.354 1061.57 940.785 1055.29 938.824 1049.02C931.765 1026.27 920.393 1002.35 908.236 981.569C889.02 950.588 856.471 930.98 823.53 915.294C800.785 904.706 776.863 896.471 752.55 888.627C728.236 880.784 703.53 874.118 678.824 868.235C672.55 866.667 674.511 857.647 680.785 858.823Z" fill="#696663"/>
<path d="M349.414 825.882C349.414 825.882 406.669 803.137 417.257 802.353L418.042 811.373C418.042 811.373 372.552 830.98 369.806 834.118C367.454 836.863 349.414 825.882 349.414 825.882Z" fill="#7E5D6D"/>
<path d="M1056.08 1334.9H64.3147C64.3147 1334.9 70.197 1152.94 129.805 1023.14C174.903 925.098 283.138 860.392 361.962 832.157C384.315 824.313 401.57 815.686 417.648 811.372C417.648 813.333 418.825 827.843 418.825 829.412C418.825 829.412 464.707 761.176 604.707 768.627C669.413 772.157 721.177 789.804 721.177 789.804C728.628 788.235 718.04 826.666 724.707 824.706C727.06 823.921 731.766 847.451 733.727 846.666C784.315 860 846.275 897.647 936.079 972.941C1038.04 1058.43 1056.08 1334.9 1056.08 1334.9Z" fill="#696663"/>
<path d="M865.099 936.078C890.439 936.078 910.982 915.536 910.982 890.196C910.982 864.856 890.439 844.313 865.099 844.313C839.759 844.313 819.217 864.856 819.217 890.196C819.217 915.536 839.759 936.078 865.099 936.078Z" fill="#FFFF8D"/>
<path d="M258.432 1334.9L240.785 1189.41" stroke="#E6F2FF" stroke-width="3" stroke-miterlimit="10" stroke-linecap="round" stroke-linejoin="round"/>
<path d="M943.529 1140C943.529 1140 931.764 1168.63 935.294 1197.26C938.823 1225.88 949.019 1267.84 934.509 1334.9" stroke="#E6F2FF" stroke-width="3" stroke-miterlimit="10" stroke-linecap="round" stroke-linejoin="round"/>
<path d="M349.411 825.885C356.862 823.532 369.803 825.885 373.725 832.551C389.019 857.649 425.882 930.983 441.176 1076.47C453.333 1190.2 434.901 1394.9 434.901 1394.9L54.1172 1376.87C54.1172 1376.87 65.4897 1183.53 98.8231 1053.73C131.764 927.845 217.254 871.375 349.411 825.885Z" fill="#F5EFE8"/>
<path d="M346.668 817.648C359.609 814.119 375.295 817.256 382.354 829.413C403.53 865.099 416.864 905.099 427.452 945.099C440.001 994.119 448.236 1044.31 452.55 1094.51C458.825 1195.3 452.942 1295.3 445.099 1396.08C444.707 1401.57 440.001 1405.49 434.511 1405.1L53.7265 1387.06C48.2363 1387.06 43.9226 1382.35 43.9226 1376.47C47.8442 1319.22 53.7265 1262.75 61.1775 1205.88C69.4128 1149.02 78.0403 1092.55 94.1187 1037.26C131.374 913.727 231.766 856.864 346.668 817.648ZM352.55 834.511C299.609 852.55 241.962 865.491 198.04 902.354C176.864 920.393 161.178 944.707 146.276 967.844C115.295 1014.51 104.315 1070.2 94.903 1125.1C80.3932 1208.63 71.7657 1293.33 64.7069 1377.65C64.7069 1377.65 54.903 1367.06 55.2952 1367.06L436.079 1385.1L425.491 1394.12C428.629 1344.31 431.766 1294.51 433.334 1244.71C438.432 1121.57 431.766 995.295 387.06 879.609C381.178 865.099 374.903 850.981 366.668 837.648C363.53 834.511 356.079 833.334 352.55 834.511Z" fill="#696663"/>
<path d="M743.923 849.804C743.923 849.804 865.099 1077.65 829.805 1381.96H1091.37C1091.37 1381.96 1090.2 1140.39 1031.37 1009.02C972.55 878.039 766.668 839.608 766.668 839.608C766.668 839.608 753.727 846.275 743.923 849.804Z" fill="#F5EFE8"/>
<path d="M753.334 853.333C754.511 852.157 754.903 849.804 754.511 848.235V847.843C756.472 852.157 758.824 856.471 760.785 860.784C817.256 986.667 844.707 1125.1 846.276 1262.75C846.668 1275.29 845.491 1301.96 845.099 1314.51C844.707 1334.9 841.177 1362.75 840.001 1383.14L830.197 1371.76H1091.77L1081.57 1381.96C1081.57 1352.94 1080 1323.53 1078.43 1294.51C1071.77 1196.08 1057.26 1025.49 988.628 952.549C935.295 895.294 841.177 860.784 765.099 849.412L771.374 848.627C765.883 851.373 759.609 854.118 754.119 856.471L750.981 857.647L750.197 858.039C751.374 857.647 752.942 855.294 753.334 853.333ZM734.511 846.275C736.079 843.529 739.609 840.392 743.138 839.216L745.883 838.039C751.374 835.686 757.256 832.941 762.746 830.196C764.707 829.412 766.668 829.02 768.628 829.804C783.53 834.118 797.648 838.431 811.766 843.137C825.883 848.235 839.609 853.333 853.334 859.216C894.119 876.863 934.119 897.647 968.236 925.882C995.687 948.235 1023.14 972.941 1038.43 1005.88C1066.28 1069.02 1079.22 1137.25 1088.63 1205.1C1096.86 1263.92 1100.79 1322.75 1101.57 1381.96C1101.57 1387.45 1097.26 1392.16 1091.37 1392.16H829.805C823.923 1392.16 819.217 1386.67 820.001 1380.78C821.57 1360.39 824.707 1333.33 825.099 1313.33C825.491 1301.18 826.668 1274.51 826.275 1262.75C825.491 1144.71 803.53 1026.27 761.962 915.686C754.511 896.078 746.275 876.471 737.256 858.039C734.903 854.902 733.726 849.804 734.511 846.275Z" fill="#696663"/>
<path d="M743.921 849.803L734.509 847.058C734.509 847.058 748.235 840.391 754.117 836.47L757.647 834.509C757.647 834.509 776.47 843.136 783.137 846.273C789.803 849.411 759.999 863.921 759.999 863.921C759.999 863.921 745.097 850.195 743.921 849.803Z" fill="#7E5D6D"/>
<path d="M316.864 960.392C316.864 960.392 262.746 998.431 267.844 1038.82C272.942 1079.22 439.609 1332.16 439.609 1332.16C439.609 1332.16 459.217 1194.9 436.864 1039.61C436.864 1039.61 420.785 1018.04 391.374 996.47C371.766 982.745 347.06 968.627 316.864 960.392Z" fill="#F5EFE8"/>
<path d="M318.825 970.588C320.001 970.588 321.177 969.804 322.354 969.019L321.57 969.411C299.217 983.529 271.766 1009.02 273.726 1037.65C276.079 1049.8 282.746 1061.96 288.628 1073.33C301.177 1097.25 314.903 1120.78 329.021 1144.31C357.256 1190.98 387.06 1236.86 417.648 1281.96L448.628 1327.06L430.197 1330.98C433.334 1307.45 435.295 1283.14 436.472 1258.82C440.393 1186.27 437.648 1113.33 427.452 1041.57L429.413 1046.27C414.903 1028.23 396.864 1012.55 378.04 999.607C360.393 987.843 341.57 978.431 321.177 972.157L320.393 971.764C319.217 971.372 319.217 970.98 318.825 970.588ZM315.295 950.588C318.825 950.98 323.138 951.764 326.668 952.941C360.785 963.529 392.158 982.353 418.825 1006.27C428.628 1014.9 436.864 1023.53 445.491 1034.12C446.668 1035.29 447.06 1036.86 447.452 1038.43C457.648 1111.76 460.393 1185.88 456.864 1260C455.687 1284.71 453.726 1309.02 450.589 1334.12C449.805 1343.53 436.864 1346.27 432.158 1338.04C405.883 1294.12 373.726 1241.18 347.844 1197.25C331.374 1169.02 308.236 1130.59 292.942 1102.35C284.315 1086.27 275.295 1070.2 268.628 1052.94C265.883 1046.67 264.315 1038.82 264.315 1031.37C267.06 1000 289.805 975.686 310.589 953.725C310.981 952.157 313.334 950.98 315.295 950.588Z" fill="#696663"/>
<path d="M950.197 1039.22C951.766 1014.12 893.727 973.334 893.727 973.334C870.589 980.001 854.119 990.589 842.354 1001.96C816.079 1026.67 812.55 1054.51 812.55 1054.51L814.119 1061.57C841.962 1182.75 833.727 1340.39 833.727 1340.39C833.727 1340.39 948.629 1064.31 950.197 1039.22Z" fill="#F5EFE8"/>
<path d="M945.49 1038.82C943.529 1015.69 907.058 991.765 887.842 981.569L896.47 983.138C861.176 992.941 829.803 1019.22 822.352 1056.08L821.96 1052.16C827.45 1075.69 832.156 1100 834.901 1123.92C844.313 1196.08 846.274 1268.24 843.529 1340.78C843.529 1341.18 824.313 1336.47 824.313 1336.47C844.313 1294.51 870.587 1232.16 889.019 1188.63C899.607 1163.92 909.411 1138.82 919.215 1113.73C928.627 1089.02 939.607 1064.31 945.49 1038.82ZM952.548 1039.22C950.195 1052.94 945.097 1065.49 940.784 1078.43C927.45 1116.47 912.156 1154.12 898.431 1192.16C885.489 1226.67 861.568 1290.59 849.411 1324.71L842.744 1343.92C838.823 1354.9 822.352 1351.37 823.529 1339.61C826.274 1268.63 824.313 1196.86 814.901 1126.27C812.156 1102.75 807.45 1079.61 802.352 1056.86C801.568 1052.55 803.137 1048.24 804.313 1044.31C815.686 1004.31 851.764 974.51 890.98 963.922C894.117 962.745 897.254 963.53 899.607 965.491C908.627 975.687 922.352 989.02 930.98 999.608C939.999 1010.59 952.548 1023.14 952.548 1039.22Z" fill="#696663"/>
<path d="M812.552 1052.16C812.552 1052.16 786.277 950.197 773.336 917.648C760.395 885.491 736.081 849.02 734.905 847.06C652.16 769.02 500.787 769.02 530.199 740.001C562.748 707.844 697.65 729.805 746.669 754.118C790.591 777.256 976.473 885.099 982.748 921.177C989.022 961.177 836.866 958.824 812.552 1052.16Z" fill="#F5EFE8"/>
<path d="M812.55 1062.35C808.236 1061.96 803.53 1058.04 802.354 1053.73V1053.33L801.962 1051.76L801.177 1048.63L799.609 1041.96C789.413 1002.75 779.609 961.569 766.275 923.529C756.864 898.431 743.138 874.902 728.628 851.765L729.805 852.941C715.687 839.216 698.824 828.235 681.57 818.431C645.883 799.216 607.06 787.059 568.236 775.686C554.903 770.588 522.354 765.098 520.393 748.627C520.393 731.372 547.06 723.921 559.609 721.569C611.373 713.725 664.315 723.137 714.119 736.863C726.668 740.784 739.217 745.098 750.981 750.98C755.295 753.333 767.06 760 771.373 762.353C807.06 782.745 841.962 804.314 876.472 827.059C910.981 849.804 945.883 871.765 974.903 901.961C998.432 926.274 984.315 941.961 958.432 953.333C921.57 969.804 881.177 981.176 851.373 1008.24C840.785 1018.04 832.158 1029.41 827.06 1042.35C825.099 1046.67 825.099 1048.63 823.138 1053.73C821.177 1056.86 816.079 1061.18 812.55 1062.35ZM812.55 1042.35C810.197 1040.78 805.883 1042.35 804.707 1044.31C803.922 1045.88 804.707 1044.31 805.099 1043.92C806.275 1040.78 807.844 1037.25 809.413 1034.12C837.648 979.608 902.354 965.882 954.119 944.314C974.119 935.294 989.021 927.451 968.236 906.667C939.609 877.647 904.315 856.47 870.197 834.902C835.295 813.725 799.609 793.725 763.53 774.51L750.197 767.451C719.609 750.98 685.099 743.921 650.981 738.431C621.177 734.51 558.432 727.451 536.472 748.627C536.472 748.627 536.864 747.843 536.864 746.667C536.864 745.49 536.472 745.098 536.472 744.706C536.472 744.706 537.648 745.882 539.217 746.667C549.413 752.157 561.177 755.294 572.942 758.823C612.55 770.588 652.942 782.745 689.805 802.745C709.021 813.333 727.844 825.49 743.53 841.569C758.824 865.098 773.334 889.804 783.922 916.078C798.04 955.294 808.236 996.078 819.217 1036.08L820.785 1042.74L821.57 1046.27L821.962 1047.84V1048.24C821.177 1044.71 816.079 1041.57 812.55 1042.35Z" fill="#696663"/>
<path d="M436.865 1040C436.865 1040 409.414 1010.98 376.473 990.587C303.532 945.489 196.473 924.705 195.296 889.803C194.512 850.587 324.708 768.627 410.983 740.783C540.786 704.705 557.649 747.45 559.218 765.489C560.002 774.117 418.434 819.607 419.218 828.627V829.019C419.218 829.019 401.179 834.901 414.12 924.705C417.257 947.058 430.983 985.489 436.865 1040Z" fill="#F5EFE8"/>
<path d="M441.179 1049.02C437.649 1050.59 431.767 1049.41 429.022 1046.27L428.63 1045.49L427.453 1044.31C426.277 1042.74 421.963 1038.43 420.394 1037.25C410.982 1027.84 400.786 1018.43 390.59 1010.2C362.355 987.45 329.022 972.548 296.081 957.646C270.59 946.666 244.316 936.862 220.002 923.136C181.963 901.96 183.924 880.783 212.551 850.979C252.551 811.764 300.394 781.568 350.59 756.862C369.414 747.842 389.022 739.607 409.022 733.332C452.551 721.568 554.512 698.822 565.492 763.136C565.492 764.313 565.884 765.097 565.492 766.666C565.1 768.234 564.316 769.019 563.924 769.803C559.218 774.509 552.943 776.862 547.453 779.215C521.963 789.803 495.688 798.43 469.414 807.45C453.335 813.332 436.473 818.038 421.571 826.273C420.786 827.058 419.61 827.842 420.002 829.018C412.943 834.901 413.335 845.489 412.159 853.724C411.375 879.999 415.688 907.45 421.571 932.94C428.63 958.43 437.257 985.097 442.355 1011.37C443.924 1019.61 446.277 1027.06 445.884 1035.29C445.1 1040.39 443.139 1045.49 441.179 1049.02ZM432.551 1030.98C430.59 1029.41 427.061 1029.8 425.492 1031.37C423.532 1017.25 421.179 1003.14 418.041 989.018C412.551 963.136 403.924 936.077 401.571 909.019L400.394 895.293C399.218 875.293 396.081 838.43 410.983 823.136C412.159 822.352 412.159 821.568 416.081 819.999L409.022 829.411C408.63 827.45 410.59 822.744 411.375 821.96C413.728 818.822 415.688 818.038 418.433 816.077C432.943 807.842 448.63 802.352 463.924 796.077C481.179 789.411 523.924 772.94 540.394 765.881C543.924 764.313 548.63 762.352 551.375 760.391C550.59 761.567 550.198 761.567 549.414 764.313C549.022 765.097 549.414 768.626 549.022 766.666C543.532 730.587 487.061 736.862 459.61 740.783C405.884 749.411 356.081 770.587 308.237 796.469C276.865 814.117 245.1 832.94 219.218 858.43C210.59 867.45 200.786 877.646 200.002 889.803C201.963 907.45 234.12 919.215 249.022 926.666C282.747 941.175 317.649 953.332 350.983 969.019C380.786 982.744 408.63 1001.57 433.335 1023.14C436.081 1025.49 440.786 1029.8 443.139 1032.16C442.747 1031.37 440.002 1029.8 437.649 1029.41C436.081 1029.8 434.12 1030.19 432.551 1030.98Z" fill="#696663"/>
<path d="M717.644 963.137C709.409 1003.53 656.075 1027.84 566.271 991.372C472.938 953.725 432.546 863.921 422.35 837.255C477.644 733.725 439.213 661.961 439.213 661.961C566.664 650.98 678.036 800 678.036 800L695.291 873.725C696.86 880 699.997 885.49 704.703 889.412C712.938 903.921 722.742 937.255 717.644 963.137Z" fill="#F5EFE8"/>
<path d="M420.391 838.431C427.842 827.059 432.548 813.726 435.685 800.784C441.567 773.726 443.528 746.275 443.92 718.824V708.627C442.744 698.431 439.214 687.843 435.293 678.431C430.195 665.882 448.626 658.039 454.508 670.588C455.293 672.157 455.293 674.902 455.293 676.471C456.469 729.804 458.822 798.431 425.097 842.745C422.744 845.098 418.038 841.569 420.391 838.431Z" fill="#696663"/>
<path d="M682.35 799.216C688.233 802.745 690.194 807.451 690.978 812.157C693.331 821.569 692.546 831.765 694.899 841.569C696.86 850.981 702.743 860 704.311 869.804C706.272 880 712.154 901.569 714.507 912.157C715.292 914.51 713.723 917.255 710.978 917.647C709.409 918.04 708.233 917.647 707.056 916.863C701.958 912.549 699.605 908.236 696.468 902.745C691.37 893.334 687.841 884.706 684.703 874.118C681.958 864.706 683.135 854.51 680.782 844.706C678.821 835.294 673.331 826.275 671.37 816.471C670.194 811.765 669.801 806.667 673.331 800.785C675.684 798.432 679.605 797.647 682.35 799.216Z" fill="#696663"/>
<path d="M710.587 902.745C635.685 898.823 574.508 875.294 514.901 769.02C565.097 813.333 624.312 830.196 686.665 838.039L694.901 874.117C696.469 880.392 705.881 898.823 710.587 902.745Z" fill="#696663"/>
<path d="M707.451 888.235C720.785 913.333 728.628 944.706 720.392 972.549C714.118 992.157 696.079 1006.67 676.471 1012.16C630.981 1024.31 578.432 1005.1 538.039 983.529C488.236 955.686 451.373 909.019 427.843 858.039C426.275 854.117 431.765 850.98 434.118 854.902C442.353 871.372 451.765 887.451 462.353 901.961C472.941 916.863 485.098 930.588 498.824 942.745C538.824 978.823 592.941 1001.18 647.059 1001.18C702.745 999.608 723.922 970.196 710.981 916.078C709.02 907.451 705.883 898.431 701.569 890.98C699.216 887.843 705.098 884.314 707.451 888.235Z" fill="#696663"/>
<path d="M859.214 417.255C866.273 450.196 860.783 472.157 857.645 563.137C854.508 652.549 828.626 778.824 796.861 810.588C772.547 834.51 694.508 853.334 625.096 835.686C589.802 826.667 559.998 806.275 535.685 791.765C505.096 773.333 478.43 716.471 456.469 680C439.214 651.373 440.783 685.883 418.43 661.177C387.449 627.451 350.194 559.608 368.626 439.608C398.43 245.098 552.547 222.353 666.665 243.922C781.567 265.49 840.391 330.588 859.214 417.255Z" fill="#F5EFE8"/>
<path d="M438.039 695.686C429.02 680.784 417.255 667.451 406.667 653.333C390.981 631.765 379.216 607.059 371.373 581.569C337.255 472.549 358.039 329.804 461.177 265.49C554.902 205.882 736.863 227.451 812.941 309.02C841.569 338.431 860 376.863 867.843 416.863C868.236 419.216 869.412 423.529 869.804 425.882C870.196 427.843 871.373 430.196 870.981 432.549C870.196 441.177 868.628 449.804 867.843 458.431C861.961 510.588 863.53 563.922 856.863 616.078C850.981 670.98 843.138 725.882 826.667 778.824C821.569 794.902 811.765 809.412 798.824 820C769.804 844.314 731.765 852.549 695.294 854.118C622.353 857.647 548.236 831.765 505.883 770.196C504.314 767.843 507.451 765.098 509.412 767.451C544.706 805.49 592.549 829.804 643.53 835.294C700 841.961 785.098 836.863 809.804 776.471C838.432 690.98 853.334 600.392 854.902 510.588C854.902 488.627 853.726 466.667 853.726 444.314C853.726 441.569 854.118 435.294 854.118 432.549C854.118 432.549 854.118 432.157 854.118 432.549C854.118 432.941 854.118 432.941 854.118 432.549C850.981 424.706 849.804 416.078 847.451 408.235C838.824 375.686 823.138 344.706 800.785 320C726.667 236.863 561.569 216.078 469.02 278.431C395.686 327.059 376.079 420.392 370.981 502.745C366.667 564.314 384.706 624.706 431.373 667.059L449.804 686.275C457.647 694.902 444.314 705.098 438.039 695.686Z" fill="#696663"/>
<path d="M484.315 570.98C484.315 570.98 472.158 512.157 414.904 519.215C365.492 525.49 348.237 643.921 460.394 676.863" fill="#F5EFE8"/>
<path d="M455.293 625.491C446.273 620.393 439.999 611.765 439.606 601.177C439.999 593.334 441.175 584.314 439.214 576.471C438.038 569.02 430.195 567.059 424.312 567.451C418.038 568.628 414.116 576.471 412.94 582.746C412.94 583.138 412.548 584.314 412.548 584.706C412.155 586.667 409.018 586.667 408.234 584.706C403.136 569.412 414.508 552.549 430.979 554.51C454.116 556.079 457.253 580.393 452.94 598.824C450.587 606.667 453.724 613.726 458.038 620.393L458.822 621.569C460.783 623.922 457.646 627.059 455.293 625.491Z" fill="#696663"/>
<path d="M769.022 529.412C774.904 557.255 785.885 583.137 799.61 607.451C811.767 637.255 780.394 665.49 752.551 664.313C749.414 664.313 749.022 660 751.767 659.215C769.414 653.725 785.492 641.961 788.237 623.921C789.414 618.431 787.845 613.725 785.1 609.019C772.159 584.706 764.316 556.862 766.277 529.412C766.277 527.451 769.022 527.451 769.022 529.412Z" fill="#696663"/>
<path d="M482.353 571.373C473.334 548.235 453.726 526.275 427.451 526.667C425.098 526.275 421.177 527.059 418.824 527.059C412.157 527.451 406.667 529.804 401.569 534.51C376.471 559.608 380.785 603.922 401.177 631.765C408.236 641.569 417.255 650.196 427.451 657.255C437.647 664.314 449.02 669.804 461.177 674.51C463.922 675.294 462.745 679.608 460 679.216C433.726 673.725 408.628 660.784 391.373 639.216C364.706 607.059 359.216 553.333 390.981 521.961C398.039 515.686 407.843 510.98 417.647 510.98C420.785 510.98 425.49 510.196 428.628 510.98C445.098 511.765 460.785 520 470.981 532.941C480 543.922 485.098 557.255 486.667 570.588C486.667 572.941 483.138 573.725 482.353 571.373Z" fill="#696663"/>
<path d="M739.216 703.529C714.118 727.451 666.667 708.235 654.118 679.216C652.549 675.686 656.471 672.549 659.608 674.117C666.275 677.647 672.157 681.176 678.432 683.921C696.471 692.157 715.294 698.823 735.294 696.863C739.216 696.078 741.961 700.784 739.216 703.529Z" fill="#696663"/>
<path d="M641.176 541.569C641.176 541.961 641.176 542.353 641.176 542.353L640.784 553.334C640.392 562.746 632.549 569.804 623.137 569.412C613.725 569.02 606.666 560.785 607.451 551.765L607.843 540.785C607.843 538.824 608.627 536.471 609.411 534.902L640.784 536.471C640.784 538.04 641.176 539.608 641.176 541.569Z" fill="#696663"/>
<path d="M805.096 550.197L804.704 560.393C804.312 569.02 796.861 575.687 788.234 575.295C779.606 574.902 772.939 567.451 773.332 558.824L773.724 548.628C773.724 546.667 774.116 544.706 774.9 543.138L804.312 544.314C804.704 546.275 805.096 548.236 805.096 550.197Z" fill="#696663"/>
<path d="M680.39 487.843C689.018 489.02 695.685 480 692.547 471.373C690.979 466.667 688.234 462.353 683.92 459.608C670.587 451.373 620.783 450.589 594.508 469.412C570.979 486.667 641.175 482.353 680.39 487.843Z" fill="#696663"/>
<path d="M789.018 492.157C781.959 492.157 777.645 483.138 781.175 475.687C783.135 471.765 785.881 468.236 789.802 466.275C801.959 460.393 834.508 463.922 849.018 483.922C861.959 501.569 821.567 491.765 789.018 492.157Z" fill="#696663"/>
<path d="M666.271 541.569L601.565 540.392C593.722 540 594.114 528.236 601.958 528.628L666.663 533.334C672.154 533.726 671.761 541.569 666.271 541.569Z" fill="#696663"/>
<path d="M821.569 548.235L773.725 549.02C765.882 549.02 765.49 537.647 773.333 537.255C773.725 537.255 773.725 537.255 774.118 537.255L821.961 542.353C825.49 542.745 825.098 547.843 821.569 548.235Z" fill="#696663"/>
<path d="M881.176 325.098C888.627 303.529 885.489 276.078 859.999 241.569C773.333 124.706 494.117 170.196 494.117 170.196C494.117 170.196 523.529 178.039 556.862 194.118C462.744 185.882 395.685 206.274 335.685 200C335.685 200 362.744 231.372 424.705 256.863C363.921 279.216 314.901 329.412 271.764 441.569C271.764 441.569 301.176 423.137 349.411 406.667C321.568 509.804 359.607 588.235 387.842 637.255C404.705 667.843 414.117 681.569 426.274 703.137C443.136 733.333 452.548 764.314 452.548 764.314C456.47 694.51 447.058 672.549 447.058 672.549C349.019 634.902 366.666 525.49 414.509 519.216C464.705 512.941 480.391 557.647 483.136 568.627C492.548 557.647 483.921 515.686 485.489 472.941C492.548 585.882 554.901 698.039 554.901 698.039C554.901 698.039 539.215 443.921 599.607 392.157C600.783 390.98 602.352 389.804 603.529 389.019C590.587 462.745 623.529 495.686 623.529 495.686C625.882 423.137 643.529 388.627 665.882 374.902C685.097 380.784 705.097 387.843 727.058 393.333C739.215 396.471 752.156 399.216 765.882 401.176C768.234 401.569 770.587 401.569 772.94 401.569C798.431 401.569 822.744 384.706 841.176 387.843C847.45 389.02 852.156 393.725 854.117 400C855.685 405.882 857.254 411.765 858.823 418.039C865.097 445.882 879.607 669.412 881.96 648.627C889.411 591.372 1025.1 400.392 881.176 325.098Z" fill="#696663"/>
<path d="M804.317 606.274C793.729 593.333 780.004 584.313 763.533 583.921C746.278 583.529 719.219 587.451 692.161 609.019C656.866 637.254 586.278 632.941 558.435 630.196C550.592 629.411 543.141 633.333 539.612 640.392C531.768 656.078 521.18 688.627 526.278 741.176C532.945 812.941 591.376 878.039 673.729 872.549C781.965 865.882 845.102 778.823 849.023 662.352C848.239 630.196 829.023 636.862 804.317 606.274Z" fill="#F5EFE8"/>
<path d="M801.179 608.627C792.16 597.254 779.611 588.235 764.709 587.45C740.003 586.274 715.297 595.294 695.689 610.98C690.591 614.901 684.709 618.823 678.827 621.96C646.67 637.254 609.415 638.039 574.513 636.47C567.454 636.47 560.003 634.509 552.552 635.294C547.846 636.078 543.925 639.999 541.964 644.705C525.101 683.921 524.709 739.999 540.003 779.999C552.552 812.156 576.866 839.607 607.846 854.901C632.16 867.058 660.395 870.196 687.454 866.666C692.552 866.274 704.709 863.529 709.807 862.745C712.552 861.96 725.101 858.039 727.846 857.254C730.199 856.47 736.081 853.725 738.042 852.941C794.513 828.235 829.023 769.803 838.434 710.588C840.395 700.784 841.572 690.588 842.356 680.392C842.748 670.196 844.709 659.999 841.964 651.372C839.611 641.96 831.376 637.646 823.925 631.372C815.689 624.313 807.846 616.862 801.179 608.627ZM807.062 603.921C816.866 616.47 830.199 622.744 842.356 632.941C856.081 644.313 853.336 665.097 852.16 680.392C852.16 684.705 850.591 691.372 850.199 696.078C843.532 742.352 824.709 787.843 792.552 822.352C747.846 869.803 673.336 892.156 610.983 868.235C551.768 844.705 518.434 783.529 519.219 721.568C518.826 695.294 521.964 668.627 532.16 643.921C532.944 641.96 533.728 640.392 534.513 638.431C538.434 630.196 547.062 624.705 556.081 625.097C582.748 627.843 609.807 629.019 636.081 625.097C656.081 622.352 675.689 616.862 690.983 604.313C714.905 585.882 751.768 572.941 781.179 583.921C791.768 588.627 800.003 595.686 807.062 603.921Z" fill="#696663"/>
<path d="M660.392 628.235C701.176 643.137 779.607 673.333 821.176 663.137C828.235 661.177 833.725 656.863 836.862 649.804C837.647 647.451 841.176 648.628 840.784 650.588C830.588 698.431 733.333 661.961 703.529 650.981C688.235 645.098 673.333 638.824 658.823 631.373C656.47 630.981 658.039 627.451 660.392 628.235Z" fill="#696663"/>
<path d="M593.726 681.569C661.57 712.549 760.001 755.294 832.942 725.098C834.903 724.314 836.864 726.667 835.295 728.235C790.589 770.981 697.256 737.255 648.236 715.294C628.628 706.275 609.805 696.471 591.766 685.098C589.805 683.922 591.373 680.392 593.726 681.569Z" fill="#696663"/>
<path d="M588.628 749.412C616.079 769.804 648.236 784.314 681.177 792.549C700.785 797.255 721.177 800.392 741.57 800C760.001 800.392 778.04 797.255 796.472 798.039C797.648 798.039 798.432 798.824 798.432 800C798.432 800.784 798.04 801.569 797.256 801.569C792.942 803.53 788.236 805.098 783.923 806.275C770.197 810.588 755.687 811.373 741.57 810.981C698.825 810.981 656.472 798.432 620.001 776.471C607.844 769.02 596.472 761.177 585.883 751.373C584.315 750.588 586.668 747.843 588.628 749.412Z" fill="#696663"/>
<path d="M611.374 638.039C598.04 661.961 593.334 690.196 590.197 717.255C584.707 762.745 594.511 809.804 614.903 850.981C616.079 852.941 612.942 855.294 611.374 852.941C582.746 803.53 573.727 743.922 587.06 688.235C590.197 674.51 594.511 660.784 600.785 647.843C603.138 643.529 605.099 639.608 608.236 635.686C609.021 634.902 610.197 634.51 610.981 635.294C611.766 636.079 612.158 637.255 611.374 638.039Z" fill="#696663"/>
<path d="M551.766 645.098C528.236 626.667 508.629 605.098 491.374 580.784C485.491 572.941 480.785 564.314 475.687 556.078C474.903 554.902 475.295 552.941 476.864 552.157C478.04 551.372 480.001 551.765 480.785 553.333C496.079 577.647 514.903 599.216 536.472 618.039C543.53 624.314 551.374 630.588 558.825 635.686C565.099 640 558.432 649.804 551.766 645.098Z" fill="#696663"/>
<path d="M458.04 675.686C473.726 723.137 506.668 762.745 546.668 792.157C552.942 796.863 545.883 806.275 539.609 801.569C499.609 769.804 466.668 727.059 452.55 677.255C451.373 673.726 456.864 671.765 458.04 675.686Z" fill="#696663"/>
<path d="M1130.2 330.588C1368.24 789.02 949.804 1306.27 450.981 1180C227.059 1124.31 47.0589 930.196 9.80403 702.353C-32.5489 475.686 69.804 232.157 261.177 103.922C523.53 -76.4704 887.059 -16.4704 1074.9 241.569C1076.08 242.745 1075.69 244.706 1074.12 245.883C1072.94 247.059 1070.98 246.667 1069.8 245.098C1043.92 211.765 1014.51 181.569 982.353 154.51C929.412 109.412 867.451 74.1179 801.961 50.1963C468.628 -70.588 102.745 130.196 29.804 478.824C-52.5489 869.412 279.608 1229.02 675.686 1175.29C981.177 1136.86 1208.24 854.902 1183.14 548.235C1177.65 474.118 1158.04 400.785 1125.49 333.334C1124.71 332.157 1125.49 330.588 1126.67 329.804C1127.84 329.02 1129.41 329.412 1130.2 330.588Z" fill="#696663"/>
</g>
</svg>
